<?xml version="1.0" standalone="no"?>
<!DOCTYPE svg PUBLIC "-//W3C//DTD SVG 20010904//EN"
 "http://www.w3.org/TR/2001/REC-SVG-20010904/DTD/svg10.dtd">
<svg version="1.0" xmlns="http://www.w3.org/2000/svg"
 width="260.000000pt" height="260.000000pt" viewBox="0 0 260.000000 260.000000"
 preserveAspectRatio="xMidYMid meet">
<metadata>
Created by potrace 1.14, written by Peter Selinger 2001-2017
</metadata>
<g transform="translate(0.000000,260.000000) scale(0.100000,-0.100000)"
fill="#000000" stroke="none">
<path d="M859 2417 c-18 -18 -41 -42 -49 -53 -42 -57 -60 -84 -60 -92 0 -5 -9
-17 -20 -27 -11 -10 -20 -24 -20 -30 0 -7 -7 -18 -15 -25 -23 -19 -18 -30 15
-30 25 0 30 -4 30 -23 0 -18 -13 -29 -59 -52 -47 -24 -61 -36 -66 -59 -7 -28
-17 -43 -62 -94 -13 -14 -23 -28 -23 -32 0 -3 -10 -17 -21 -29 -17 -18 -19
-25 -8 -31 7 -5 16 -7 20 -5 3 3 -2 -30 -12 -73 -10 -42 -21 -89 -24 -104 -3
-15 -12 -33 -20 -42 -8 -8 -15 -19 -15 -25 0 -13 -48 -63 -88 -91 -33 -22 -92
-128 -92 -164 0 -9 -4 -16 -10 -16 -5 0 -10 -10 -10 -21 0 -19 -4 -21 -38 -17
-33 5 -40 2 -65 -31 -23 -29 -26 -37 -13 -39 25 -5 19 -39 -19 -93 -19 -28
-35 -57 -35 -65 0 -9 -11 -14 -28 -14 -44 0 -52 -16 -52 -108 l0 -85 25 27
c13 14 29 26 35 26 5 0 10 8 10 19 0 10 11 26 25 35 13 9 33 26 44 37 15 17
27 20 51 16 37 -8 77 9 86 37 4 11 20 31 35 45 16 14 29 30 29 36 1 5 19 28
40 50 22 22 40 43 40 48 0 4 7 7 15 7 12 0 15 13 15 55 0 53 -1 55 -27 55 -24
1 -25 2 -10 11 9 5 17 16 17 22 0 9 19 12 69 9 61 -4 76 -1 123 24 29 16 55
31 58 34 3 3 19 11 35 19 17 7 38 17 47 22 10 5 27 9 38 9 11 0 28 9 37 20 11
12 30 20 49 20 17 0 37 6 43 14 15 18 91 26 91 9 0 -11 59 -113 71 -123 4 -3
12 -44 19 -92 7 -49 17 -88 22 -88 4 0 8 -26 8 -57 0 -32 6 -69 13 -83 7 -14
22 -49 32 -78 15 -40 16 -55 7 -64 -7 -7 -12 -18 -12 -25 0 -8 -21 -57 -47
-111 -42 -88 -75 -132 -140 -183 -32 -26 -143 -49 -143 -30 0 20 -19 11 -35
-17 -19 -31 -66 -62 -96 -62 -16 0 -19 -7 -19 -40 l0 -40 69 0 c57 0 86 7 163
38 51 20 114 50 140 65 26 15 62 27 80 27 20 0 43 8 54 19 13 12 41 20 79 23
32 3 61 10 63 16 2 7 12 12 23 12 10 0 19 5 19 10 0 6 7 10 15 10 8 0 15 5 15
10 0 6 5 10 10 10 6 0 10 -7 10 -15 0 -11 12 -15 51 -15 40 0 56 5 70 22 24
27 24 25 -6 -58 -29 -81 -30 -84 -10 -84 9 0 15 -9 15 -24 0 -18 -6 -25 -22
-28 -31 -4 -108 -142 -108 -193 0 -13 -11 -35 -25 -49 l-25 -26 25 -6 c18 -5
25 -13 25 -31 0 -24 -2 -25 -37 -20 -21 4 -39 11 -41 17 -2 6 -15 2 -30 -8
-15 -11 -49 -30 -77 -43 -27 -13 -52 -28 -54 -34 -2 -5 -24 -31 -49 -57 l-45
-48 57 0 c31 0 56 4 56 10 0 5 12 12 28 15 67 15 112 28 112 34 0 4 36 13 79
20 45 7 82 19 85 26 3 8 43 17 108 24 57 7 148 22 203 33 65 14 124 21 170 18
190 -9 321 -5 345 11 14 9 60 19 102 23 43 4 80 11 83 16 3 4 21 11 40 14 19
4 35 11 35 17 0 18 -43 26 -112 21 -47 -3 -68 -1 -68 7 0 8 -43 11 -143 11
l-144 0 5 -30 c4 -27 1 -30 -22 -30 -21 0 -26 5 -26 24 0 25 -28 36 -96 36
-23 0 -34 5 -34 14 0 22 -34 8 -71 -30 -19 -19 -43 -34 -56 -34 -19 0 -23 5
-23 31 l0 31 -47 -7 c-27 -4 -56 -11 -65 -16 -9 -5 -28 -9 -42 -9 -13 0 -26
-5 -28 -10 -2 -6 -21 -13 -42 -17 -36 -6 -39 -5 -31 13 4 10 15 38 23 61 8 24
18 43 22 43 4 0 5 11 3 25 -4 18 8 42 43 92 29 40 43 68 36 71 -7 2 -12 14
-12 27 0 18 6 24 28 27 20 2 28 9 30 28 4 35 23 80 33 80 5 0 9 7 9 15 0 8 8
15 19 15 14 0 21 10 25 35 5 25 12 35 25 35 17 0 30 20 64 100 20 47 30 100
20 100 -13 0 -72 -24 -140 -56 -42 -20 -62 -35 -63 -47 0 -12 -19 -26 -57 -44
-94 -41 -164 -76 -169 -85 -8 -13 -42 -9 -51 6 -4 8 -19 16 -33 18 -22 3 -26
9 -32 62 -4 33 -11 62 -16 65 -9 7 -52 141 -52 163 0 9 -4 18 -9 20 -17 6 -68
144 -60 164 13 34 10 64 -11 86 -24 26 -70 171 -70 221 0 34 -2 37 -30 37 -22
0 -30 5 -30 18 0 10 -7 27 -15 38 -8 10 -15 31 -15 47 0 23 4 27 27 27 25 0
26 0 8 20 -10 11 -25 20 -34 21 -10 0 -12 2 -3 6 19 7 14 48 -10 90 -12 21
-25 40 -29 43 -3 3 -9 21 -12 40 -3 19 -12 62 -21 95 -9 33 -16 89 -16 125 0
46 -8 83 -25 125 -14 34 -21 61 -15 63 6 2 10 17 10 33 0 25 -4 29 -28 29 -18
0 -40 -12 -63 -33z m-79 -227 c0 -11 -7 -20 -15 -20 -15 0 -21 21 -8 33 12 13
23 7 23 -13z m-8 -223 c9 -9 26 -17 37 -17 13 0 23 -8 26 -23 3 -12 20 -31 36
-42 29 -19 30 -23 25 -67 -5 -52 -30 -98 -52 -98 -8 0 -14 -7 -14 -15 0 -22
-43 -56 -97 -78 -27 -10 -56 -23 -65 -28 -47 -25 -50 6 -8 86 22 43 30 70 30
110 0 32 -5 55 -12 57 -9 3 -8 17 1 59 7 30 15 73 18 97 l5 42 27 -33 c14 -18
34 -41 43 -50z m478 -1182 c0 -31 -3 -35 -25 -35 -31 0 -33 22 -3 50 12 11 23
20 25 20 2 0 3 -16 3 -35z"/>
</g>
</svg>
